<svg xmlns="http://www.w3.org/2000/svg" viewBox="0 0 380 241" width="380" height="241" role="img" aria-labelledby="title"><title id="title">TGA — reversed</title><rect width="380" height="241" fill="#2A211B"/><path fill="#C9D3DB" d="M178.39 67H184.39V96H178.39ZM303.09 67H309.09V96H303.09ZM178.39 67H309.09V73H178.39ZM58.83 35H64.83V96H58.83ZM240.74 35H246.74V67H240.74ZM58.83 35H246.74V41H58.83ZM149.79 16H155.79V35H149.79Z"/><path fill="#F6EEE3" d="M36.95 224.74V224.06H53.45V112.92H39.91Q33.45 112.92 29.11 115.47Q24.78 118.02 22.12 122.61Q19.46 127.2 18.2 133.35Q16.93 139.49 16.69 146.62H16V112.24H107.67V146.62H106.93Q106.7 139.49 105.43 133.35Q104.17 127.2 101.5 122.61Q98.84 118.02 94.47 115.47Q90.11 112.92 83.69 112.92H70.22V224.06H86.72V224.74ZM189.23 181.63H231.84V182.35H223.25V200.41Q221.04 204.02 217.55 208.46Q214.05 212.9 209.02 216.96Q203.98 221.02 197.04 223.63Q190.11 226.24 180.96 226.24Q165.04 226.24 153.88 218.86Q142.71 211.48 136.83 198.45Q130.95 185.42 130.95 168.49Q130.95 155.81 134.81 145.22Q138.67 134.62 145.67 126.91Q152.67 119.19 162.23 114.96Q171.8 110.74 183.2 110.74Q190.48 110.74 196.97 113.32Q203.45 115.9 208.33 120.41L219.03 112.24H219.66V143.62H218.98Q218.62 136.93 215.71 131.17Q212.8 125.41 208.05 121.09Q203.3 116.76 197.31 114.34Q191.32 111.91 184.81 111.91Q175.45 111.91 168.9 116.84Q162.34 121.76 158.36 129.97Q154.39 138.18 152.55 148.2Q150.71 158.22 150.71 168.49Q150.71 178.69 152.04 188.83Q153.38 198.96 156.7 207.26Q160.02 215.55 165.93 220.55Q171.83 225.56 180.96 225.56Q187.3 225.56 191.64 223.14Q195.98 220.73 198.68 217.32Q201.37 213.92 202.87 210.71Q204.38 207.5 204.99 205.99V182.35H189.23ZM277.85 188.46V187.79H324.38V188.46ZM307.44 110 346.97 224.06H357.76V224.74H312.14V224.06H327.6L297.86 131.94L265.6 224.06H283.48V224.74H250.47V224.06H264.85L304.74 110Z"/></svg>
