<svg fill="#2a211b" xmlns="http://www.w3.org/2000/svg" viewBox="0 0 419 293" width="419" height="293" role="img" aria-labelledby="title"><title>TGA — Taxo Genomic Analyses</title><title id="title">TGA — Taxo Genomic Analyses, stacked</title><path fill="#2a211b" d="M200.99 67H206.99V96H200.99ZM327.83 67H333.83V96H327.83ZM200.99 67H333.83V73H200.99ZM79.38 35H85.38V96H79.38ZM264.41 35H270.41V67H264.41ZM79.38 35H270.41V41H79.38ZM171.89 16H177.89V35H171.89Z"/><path fill="#2a211b" d="M56.05 224.74V224.06H72.55V112.92H60.73Q54.46 112.92 50.02 115.58Q45.58 118.24 42.66 122.97Q39.74 127.7 38.17 133.96Q36.59 140.21 36.07 147.34H35.37V112.24H129.38V147.34H128.65Q128.16 140.21 126.57 133.96Q124.98 127.7 122.06 122.97Q119.14 118.24 114.68 115.58Q110.22 112.92 103.98 112.92H92.2V224.06H108.7V224.74ZM210.51 181.63H255.51V182.35H247.41V200.9Q244.56 204.59 240.8 208.97Q237.03 213.35 231.95 217.28Q226.86 221.22 219.96 223.73Q213.06 226.24 203.91 226.24Q187.64 226.24 176.15 218.96Q164.65 211.69 158.56 198.68Q152.46 185.67 152.46 168.48Q152.46 155.63 156.54 145.01Q160.62 134.39 167.91 126.73Q175.2 119.07 184.98 114.91Q194.76 110.74 206.16 110.74Q213.12 110.74 219.38 113.2Q225.64 115.66 230.48 119.96L243.16 112.24H243.79V144.34H243.1Q242.4 137.94 239.32 132.11Q236.25 126.28 231.42 121.74Q226.6 117.21 220.56 114.58Q214.52 111.95 207.9 111.95Q198.99 111.95 192.7 116.86Q186.41 121.78 182.56 129.98Q178.7 138.19 176.9 148.21Q175.11 158.22 175.11 168.5Q175.11 178.69 176.38 188.83Q177.66 198.97 180.83 207.26Q184 215.55 189.62 220.56Q195.24 225.56 203.91 225.56Q209.54 225.56 213.48 223.28Q217.43 220.99 219.98 217.68Q222.54 214.38 224.05 211.12Q225.56 207.86 226.26 205.99V182.35H210.51ZM301.37 188.46V187.78H346.4V188.46ZM333.32 110 372.86 224.06H383.63V224.74H335.57V224.06H350.11L320.87 133.55L289.13 224.06H306.98V224.74H273.97V224.06H288.35L328.34 110Z"/><path fill="#2a211b" d="M18.81 276.74V276.4L20.99 275.54V264.03H17.82L16.25 267.33H15.91V262.88H28.72V267.33H28.39L26.81 264.03H23.64V275.54L25.8 276.4V276.74ZM34.69 276.74V276.4L35.99 275.69L41.43 262.77H42.9L48.27 275.67L49.7 276.4V276.74H43.65V276.4L45.48 275.67L43.99 272.01H38.97L37.48 275.67L39.22 276.4V276.74ZM39.43 270.86H43.51L41.47 265.86ZM55.44 276.74V276.4L57.03 275.58L61.44 270.04L57.07 263.97L55.71 263.22V262.88H61.95V263.22L60.29 264.01V264.12L63.33 268.28L66.63 264.12V264.03L65.01 263.22V262.88H69.72V263.22L68.35 263.95L64.07 269.26L68.73 275.56L70.22 276.4V276.74H63.88V276.4L65.39 275.63V275.54L62.18 271.07L58.67 275.52L58.65 275.61L60.35 276.4V276.74ZM83.81 276.95Q82.27 276.95 80.96 276.41Q79.65 275.88 78.68 274.92Q77.72 273.97 77.18 272.65Q76.65 271.34 76.65 269.81Q76.65 268.26 77.18 266.95Q77.72 265.65 78.68 264.7Q79.65 263.74 80.96 263.2Q82.27 262.67 83.81 262.67Q85.34 262.67 86.65 263.2Q87.97 263.74 88.93 264.7Q89.9 265.65 90.43 266.95Q90.97 268.26 90.97 269.81Q90.97 271.34 90.43 272.65Q89.9 273.97 88.93 274.92Q87.97 275.88 86.65 276.41Q85.34 276.95 83.81 276.95ZM84.19 275.88Q85.36 275.88 86.25 275.21Q87.15 274.53 87.65 273.32Q88.15 272.1 88.15 270.44Q88.15 268.4 87.54 266.89Q86.92 265.38 85.86 264.55Q84.79 263.72 83.49 263.72Q82.32 263.72 81.41 264.38Q80.51 265.04 79.99 266.26Q79.46 267.48 79.46 269.14Q79.46 271.17 80.1 272.69Q80.74 274.2 81.8 275.04Q82.86 275.88 84.19 275.88ZM114.97 276.95Q113.46 276.95 112.17 276.43Q110.88 275.92 109.9 275.01Q108.93 274.09 108.38 272.84Q107.83 271.59 107.83 270.12Q107.83 268.53 108.45 267.16Q109.07 265.8 110.14 264.79Q111.21 263.78 112.61 263.23Q114.01 262.67 115.56 262.67Q116.67 262.67 117.46 262.8Q118.25 262.92 118.87 263.15Q119.49 263.38 120.1 263.68L120.27 267.27H119.91L118.17 264.52Q117.47 264.08 116.91 263.89Q116.34 263.7 115.6 263.7Q114.18 263.7 113.02 264.43Q111.87 265.17 111.2 266.47Q110.54 267.77 110.54 269.47Q110.54 271.45 111.21 272.85Q111.89 274.26 113.03 275.02Q114.18 275.77 115.58 275.77Q116.07 275.77 116.59 275.71Q117.12 275.65 117.64 275.52V271.78L115.77 270.86V270.52H121.8V270.86L120.27 271.83V275.19Q119.64 275.71 118.74 276.11Q117.85 276.51 116.86 276.73Q115.88 276.95 114.97 276.95ZM128.31 276.74V276.4L130.05 275.54V264.08L128.31 263.22V262.88H139.27V266.51H138.94L137.49 264.03H132.68V269.01H136.06L137.19 267.23H137.53V271.91H137.19L136.06 270.17H132.68V275.58H138.01L139.52 272.64H139.86V276.74ZM146.87 276.74V276.4L148.64 275.54V264.1L146.9 263.22V262.88H150.51L158.61 272.46V264.03L156.35 263.22V262.88H161.81V263.22L160.08 264.06V276.84H158.99L150.11 266.39V275.56L152.38 276.4V276.74ZM175.79 276.95Q174.26 276.95 172.95 276.41Q171.63 275.88 170.67 274.92Q169.7 273.97 169.17 272.65Q168.63 271.34 168.63 269.81Q168.63 268.26 169.17 266.95Q169.7 265.65 170.67 264.7Q171.63 263.74 172.95 263.2Q174.26 262.67 175.79 262.67Q177.33 262.67 178.64 263.2Q179.95 263.74 180.92 264.7Q181.88 265.65 182.42 266.95Q182.95 268.26 182.95 269.81Q182.95 271.34 182.42 272.65Q181.88 273.97 180.92 274.92Q179.95 275.88 178.64 276.41Q177.33 276.95 175.79 276.95ZM176.17 275.88Q177.35 275.88 178.24 275.21Q179.13 274.53 179.64 273.32Q180.14 272.1 180.14 270.44Q180.14 268.4 179.52 266.89Q178.9 265.38 177.84 264.55Q176.78 263.72 175.48 263.72Q174.3 263.72 173.4 264.38Q172.5 265.04 171.97 266.26Q171.45 267.48 171.45 269.14Q171.45 271.17 172.09 272.69Q172.73 274.2 173.79 275.04Q174.85 275.88 176.17 275.88ZM189.78 276.74V276.4L191.52 275.54L191.94 264.08L190.14 263.22V262.88H194.8L199.27 273.23L203.72 262.88H208.2V263.22L206.41 263.93L206.77 275.54L208.3 276.4V276.74H202.57V276.4L204.21 275.56L204 265.44L199.12 276.84H198.03L193.16 265.53L192.89 275.56L194.67 276.4V276.74ZM215.11 276.74V276.4L216.85 275.54V264.08L215.11 263.22V262.88H221.24V263.22L219.5 264.08V275.54L221.24 276.4V276.74ZM235.39 276.95Q233.21 276.95 231.6 276.06Q230 275.16 229.1 273.62Q228.21 272.08 228.21 270.12Q228.21 268.59 228.82 267.25Q229.43 265.9 230.48 264.87Q231.53 263.85 232.88 263.26Q234.24 262.67 235.73 262.67Q236.8 262.67 237.55 262.81Q238.29 262.94 238.87 263.16Q239.45 263.38 240.03 263.68L240.22 267.5H239.85L238.14 264.54Q237.51 264.12 236.99 263.92Q236.46 263.72 235.77 263.72Q234.41 263.72 233.31 264.48Q232.22 265.23 231.59 266.6Q230.96 267.96 230.96 269.75Q230.96 271.66 231.57 273.02Q232.18 274.39 233.22 275.12Q234.26 275.86 235.54 275.86Q236.49 275.86 237.17 275.61Q237.85 275.35 238.42 275L240.06 272.41H240.41L240.14 275.88Q239.26 276.36 238.13 276.66Q237.01 276.95 235.39 276.95ZM257.05 276.74V276.4L258.35 275.69L263.79 262.77H265.26L270.63 275.67L272.06 276.4V276.74H266.01V276.4L267.84 275.67L266.35 272.01H261.33L259.84 275.67L261.58 276.4V276.74ZM261.79 270.86H265.87L263.83 265.86ZM278.19 276.74V276.4L279.96 275.54V264.1L278.22 263.22V262.88H281.83L289.93 272.46V264.03L287.67 263.22V262.88H293.13V263.22L291.4 264.06V276.84H290.31L281.43 266.39V275.56L283.7 276.4V276.74ZM299.28 276.74V276.4L300.58 275.69L306.02 262.77H307.49L312.87 275.67L314.3 276.4V276.74H308.25V276.4L310.07 275.67L308.58 272.01H303.56L302.07 275.67L303.82 276.4V276.74ZM304.03 270.86H308.1L306.06 265.86ZM320.51 276.74V276.4L322.25 275.54V264.08L320.51 263.22V262.88H326.85V263.22L324.88 264.08V275.58H329.71L331.31 271.8H331.64V276.74ZM342.12 276.74V276.4L344.01 275.54V270.27L339.39 263.97L338.03 263.22V262.88H343.95V263.22L342.37 263.97V264.06L346.07 269.07L349.41 264.1V264.01L347.81 263.22V262.88H352.45V263.22L351.09 263.91L346.66 270.25V275.54L348.53 276.4V276.74ZM363.23 276.95Q361.88 276.95 360.9 276.69Q359.91 276.42 358.92 275.92L358.71 272.41H359.07L360.35 274.83Q361.65 275.9 363.08 275.9Q364.26 275.9 364.97 275.32Q365.69 274.74 365.69 273.67Q365.69 272.88 365.32 272.38Q364.95 271.89 364.19 271.48Q363.44 271.07 362.24 270.52Q360.75 269.81 359.95 268.98Q359.15 268.15 359.15 266.74Q359.15 265.97 359.54 265.23Q359.93 264.5 360.6 263.92Q361.28 263.34 362.12 263.01Q362.96 262.67 363.82 262.67Q364.87 262.67 365.78 262.91Q366.69 263.15 367.53 263.59L367.74 266.95H367.41L366.13 264.64Q365.52 264.18 364.98 263.95Q364.45 263.72 363.77 263.72Q362.89 263.72 362.31 264.31Q361.74 264.9 361.74 265.8Q361.74 266.74 362.37 267.32Q363 267.9 364.47 268.59Q365.75 269.18 366.57 269.75Q367.39 270.31 367.79 271.03Q368.18 271.74 368.18 272.79Q368.18 273.8 367.75 274.57Q367.32 275.33 366.6 275.87Q365.87 276.4 364.99 276.68Q364.11 276.95 363.23 276.95ZM374.97 276.74V276.4L376.71 275.54V264.08L374.97 263.22V262.88H385.93V266.51H385.59L384.15 264.03H379.34V269.01H382.72L383.85 267.23H384.19V271.91H383.85L382.72 270.17H379.34V275.58H384.67L386.18 272.64H386.52V276.74ZM398.13 276.95Q396.79 276.95 395.8 276.69Q394.81 276.42 393.83 275.92L393.62 272.41H393.97L395.25 274.83Q396.56 275.9 397.99 275.9Q399.16 275.9 399.88 275.32Q400.59 274.74 400.59 273.67Q400.59 272.88 400.22 272.38Q399.85 271.89 399.1 271.48Q398.34 271.07 397.15 270.52Q395.65 269.81 394.86 268.98Q394.06 268.15 394.06 266.74Q394.06 265.97 394.45 265.23Q394.84 264.5 395.51 263.92Q396.18 263.34 397.02 263.01Q397.86 262.67 398.72 262.67Q399.77 262.67 400.68 262.91Q401.6 263.15 402.44 263.59L402.65 266.95H402.31L401.03 264.64Q400.42 264.18 399.89 263.95Q399.35 263.72 398.68 263.72Q397.8 263.72 397.22 264.31Q396.64 264.9 396.64 265.8Q396.64 266.74 397.27 267.32Q397.9 267.9 399.37 268.59Q400.65 269.18 401.47 269.75Q402.29 270.31 402.69 271.03Q403.09 271.74 403.09 272.79Q403.09 273.8 402.66 274.57Q402.23 275.33 401.5 275.87Q400.78 276.4 399.9 276.68Q399.01 276.95 398.13 276.95Z"/></svg>
